<?xml version="1.0" encoding="UTF-8" standalone="no"?><svg xmlns="http://www.w3.org/2000/svg" xmlns:xlink="http://www.w3.org/1999/xlink" contentStyleType="text/css" height="274px" preserveAspectRatio="none" style="width:227px;height:274px;background:#FFFFFF;" version="1.1" viewBox="0 0 227 274" width="227px" zoomAndPan="magnify"><defs/><g><!--cluster ual.hmis.sesion05.ejercicio1--><g id="cluster_ual.hmis.sesion05.ejercicio1"><path d="M8.5,130 L207.5,130 A3.75,3.75 0 0 1 210,132.5 L217,153.6094 L217.5,153.6094 A2.5,2.5 0 0 1 220,156.1094 L220,245.5 A2.5,2.5 0 0 1 217.5,248 L8.5,248 A2.5,2.5 0 0 1 6,245.5 L6,132.5 A2.5,2.5 0 0 1 8.5,130 " fill="none" style="stroke:#000000;stroke-width:1.5;"/><line style="stroke:#000000;stroke-width:1.5;" x1="6" x2="217" y1="153.6094" y2="153.6094"/><text fill="#000000" font-family="sans-serif" font-size="14" font-weight="bold" lengthAdjust="spacing" textLength="198" x="10" y="146.5332">ual.hmis.sesion05.ejercicio1</text></g><!--cluster java.lang--><g id="cluster_java.lang"><path d="M62.5,6 L126.5,6 A3.75,3.75 0 0 1 129,8.5 L136,29.6094 L163.5,29.6094 A2.5,2.5 0 0 1 166,32.1094 L166,103.5 A2.5,2.5 0 0 1 163.5,106 L62.5,106 A2.5,2.5 0 0 1 60,103.5 L60,8.5 A2.5,2.5 0 0 1 62.5,6 " fill="none" style="stroke:#000000;stroke-width:1.5;"/><line style="stroke:#000000;stroke-width:1.5;" x1="60" x2="136" y1="29.6094" y2="29.6094"/><text fill="#000000" font-family="sans-serif" font-size="14" font-weight="bold" lengthAdjust="spacing" textLength="63" x="64" y="22.5332">java.lang</text></g><!--class ual.hmis.sesion05.ejercicio1.Ejercicio1--><a href="Ejercicio1.html" target="_top" title="Ejercicio1.html" xlink:actuate="onRequest" xlink:href="Ejercicio1.html" xlink:show="new" xlink:title="Ejercicio1.html" xlink:type="simple"><g id="elem_ual.hmis.sesion05.ejercicio1.Ejercicio1"><rect codeLine="3" fill="#F1F1F1" height="65.6094" id="ual.hmis.sesion05.ejercicio1.Ejercicio1" rx="2.5" ry="2.5" style="stroke:#181818;stroke-width:0.5;" width="147" x="39.5" y="166"/><ellipse cx="78.8" cy="182" fill="#ADD1B2" rx="11" ry="11" style="stroke:#181818;stroke-width:1.0;"/><path d="M81.5656,177.875 Q81.7219,177.6563 81.9094,177.5469 Q82.0969,177.4375 82.3156,177.4375 Q82.6906,177.4375 82.925,177.7031 Q83.1594,177.9531 83.1594,178.5625 L83.1594,180.0156 Q83.1594,180.625 82.925,180.8906 Q82.6906,181.1563 82.3156,181.1563 Q81.9719,181.1563 81.7688,180.9531 Q81.5656,180.7656 81.4563,180.25 Q81.4094,179.8906 81.2219,179.7031 Q80.8938,179.3281 80.2844,179.1094 Q79.675,178.8906 79.05,178.8906 Q78.2844,178.8906 77.6438,179.2188 Q77.0188,179.5469 76.5188,180.2969 Q76.0344,181.0469 76.0344,182.0781 L76.0344,183.1719 Q76.0344,184.4063 76.925,185.2344 Q77.8156,186.0469 79.4094,186.0469 Q80.3469,186.0469 81.0031,185.7969 Q81.3938,185.6406 81.8156,185.2031 Q82.0813,184.9375 82.2219,184.8594 Q82.3781,184.7813 82.5813,184.7813 Q82.9094,184.7813 83.1594,185.0469 Q83.425,185.2969 83.425,185.6406 Q83.425,185.9844 83.0813,186.3906 Q82.5813,186.9688 81.7844,187.2969 Q80.7063,187.75 79.4094,187.75 Q77.8938,187.75 76.6906,187.125 Q75.7063,186.625 75.0188,185.5625 Q74.3313,184.4844 74.3313,183.2031 L74.3313,182.0469 Q74.3313,180.7188 74.9406,179.5781 Q75.5656,178.4219 76.6594,177.8125 Q77.7531,177.1875 78.9875,177.1875 Q79.7219,177.1875 80.3625,177.3594 Q81.0188,177.5156 81.5656,177.875 Z " fill="#000000"/><text fill="#000000" font-family="sans-serif" font-size="14" lengthAdjust="spacing" textLength="61" x="98.2" y="187.7285">Ejercicio1</text><line style="stroke:#181818;stroke-width:0.5;" x1="40.5" x2="185.5" y1="198" y2="198"/><line style="stroke:#181818;stroke-width:0.5;" x1="40.5" x2="185.5" y1="206" y2="206"/><ellipse cx="50.5" cy="220.3047" fill="#84BE84" rx="3" ry="3" style="stroke:#038048;stroke-width:1.0;"/><text fill="#000000" font-family="sans-serif" font-size="14" lengthAdjust="spacing" textLength="121" x="59.5" y="224.5332">transformar(int): int</text></g></a><!--class java.lang.Object--><g id="elem_java.lang.Object"><rect codeLine="11" fill="#F1F1F1" height="48" id="java.lang.Object" rx="2.5" ry="2.5" style="stroke:#181818;stroke-width:0.5;" width="73" x="76.5" y="42"/><ellipse cx="91.5" cy="58" fill="#ADD1B2" rx="11" ry="11" style="stroke:#181818;stroke-width:1.0;"/><path d="M94.2656,53.875 Q94.4219,53.6563 94.6094,53.5469 Q94.7969,53.4375 95.0156,53.4375 Q95.3906,53.4375 95.625,53.7031 Q95.8594,53.9531 95.8594,54.5625 L95.8594,56.0156 Q95.8594,56.625 95.625,56.8906 Q95.3906,57.1563 95.0156,57.1563 Q94.6719,57.1563 94.4688,56.9531 Q94.2656,56.7656 94.1563,56.25 Q94.1094,55.8906 93.9219,55.7031 Q93.5938,55.3281 92.9844,55.1094 Q92.375,54.8906 91.75,54.8906 Q90.9844,54.8906 90.3438,55.2188 Q89.7188,55.5469 89.2188,56.2969 Q88.7344,57.0469 88.7344,58.0781 L88.7344,59.1719 Q88.7344,60.4063 89.625,61.2344 Q90.5156,62.0469 92.1094,62.0469 Q93.0469,62.0469 93.7031,61.7969 Q94.0938,61.6406 94.5156,61.2031 Q94.7813,60.9375 94.9219,60.8594 Q95.0781,60.7813 95.2813,60.7813 Q95.6094,60.7813 95.8594,61.0469 Q96.125,61.2969 96.125,61.6406 Q96.125,61.9844 95.7813,62.3906 Q95.2813,62.9688 94.4844,63.2969 Q93.4063,63.75 92.1094,63.75 Q90.5938,63.75 89.3906,63.125 Q88.4063,62.625 87.7188,61.5625 Q87.0313,60.4844 87.0313,59.2031 L87.0313,58.0469 Q87.0313,56.7188 87.6406,55.5781 Q88.2656,54.4219 89.3594,53.8125 Q90.4531,53.1875 91.6875,53.1875 Q92.4219,53.1875 93.0625,53.3594 Q93.7188,53.5156 94.2656,53.875 Z " fill="#000000"/><text fill="#000000" font-family="sans-serif" font-size="14" lengthAdjust="spacing" textLength="41" x="105.5" y="63.7285">Object</text><line style="stroke:#181818;stroke-width:0.5;" x1="77.5" x2="148.5" y1="74" y2="74"/><line style="stroke:#181818;stroke-width:0.5;" x1="77.5" x2="148.5" y1="82" y2="82"/></g><!--reverse link java.lang.Object to ual.hmis.sesion05.ejercicio1.Ejercicio1--><g id="link_java.lang.Object_ual.hmis.sesion05.ejercicio1.Ejercicio1"><path codeLine="7" d="M113,110.16 C113,128.29 113,149.01 113,165.78 " fill="none" id="java.lang.Object-backto-ual.hmis.sesion05.ejercicio1.Ejercicio1" style="stroke:#181818;stroke-width:1.0;"/><polygon fill="none" points="106,110.12,113,90.12,120,110.12,106,110.12" style="stroke:#181818;stroke-width:1.0;"/></g><text fill="#888888" font-family="sans-serif" font-size="10" lengthAdjust="spacing" textLength="184" x="14.5" y="264.3809">UMLDoclet 2.1.0, PlantUML 1.2022.14</text><!--SRC=[JL2x3i8m3Dpx5LwGMa6Z5ea5CS86WeMfwc0Y5rBbWPBG1VXtKXKrkS6MxVETPG00ZOhS4pd12oLxAE6O8oUChZQCUh9SS65gU6SP_C4bEWU7E6kQMB27Lx9j0nyIBBr5xJfZ5TfSQ5zi8SIPyetYFGx89EexEzzwuXvsdx9CpBA47q-VjnBVwSn99TtYf3rPw8mPq_Lqt1ikoSEQrQnQmIN8-D25nK1s_4DU_000]--></g></svg>