<?xml version="1.0" encoding="UTF-8" standalone="no"?><svg xmlns="http://www.w3.org/2000/svg" xmlns:xlink="http://www.w3.org/1999/xlink" contentStyleType="text/css" height="274px" preserveAspectRatio="none" style="width:239px;height:274px;background:#FFFFFF;" version="1.1" viewBox="0 0 239 274" width="239px" zoomAndPan="magnify"><defs/><g><!--cluster ual.hmis.sesion05.ejercicio3--><g id="cluster_ual.hmis.sesion05.ejercicio3"><path d="M8.5,130 L207.5,130 A3.75,3.75 0 0 1 210,132.5 L217,153.6094 L229.5,153.6094 A2.5,2.5 0 0 1 232,156.1094 L232,245.5 A2.5,2.5 0 0 1 229.5,248 L8.5,248 A2.5,2.5 0 0 1 6,245.5 L6,132.5 A2.5,2.5 0 0 1 8.5,130 " fill="none" style="stroke:#000000;stroke-width:1.5;"/><line style="stroke:#000000;stroke-width:1.5;" x1="6" x2="217" y1="153.6094" y2="153.6094"/><text fill="#000000" font-family="sans-serif" font-size="14" font-weight="bold" lengthAdjust="spacing" textLength="198" x="10" y="146.5332">ual.hmis.sesion05.ejercicio3</text></g><!--cluster java.lang--><g id="cluster_java.lang"><path d="M68.5,6 L132.5,6 A3.75,3.75 0 0 1 135,8.5 L142,29.6094 L169.5,29.6094 A2.5,2.5 0 0 1 172,32.1094 L172,103.5 A2.5,2.5 0 0 1 169.5,106 L68.5,106 A2.5,2.5 0 0 1 66,103.5 L66,8.5 A2.5,2.5 0 0 1 68.5,6 " fill="none" style="stroke:#000000;stroke-width:1.5;"/><line style="stroke:#000000;stroke-width:1.5;" x1="66" x2="142" y1="29.6094" y2="29.6094"/><text fill="#000000" font-family="sans-serif" font-size="14" font-weight="bold" lengthAdjust="spacing" textLength="63" x="70" y="22.5332">java.lang</text></g><!--class ual.hmis.sesion05.ejercicio3.Ejercicio3--><a href="Ejercicio3.html" target="_top" title="Ejercicio3.html" xlink:actuate="onRequest" xlink:href="Ejercicio3.html" xlink:show="new" xlink:title="Ejercicio3.html" xlink:type="simple"><g id="elem_ual.hmis.sesion05.ejercicio3.Ejercicio3"><rect codeLine="3" fill="#F1F1F1" height="65.6094" id="ual.hmis.sesion05.ejercicio3.Ejercicio3" rx="2.5" ry="2.5" style="stroke:#181818;stroke-width:0.5;" width="193" x="22.5" y="166"/><ellipse cx="84.25" cy="182" fill="#ADD1B2" rx="11" ry="11" style="stroke:#181818;stroke-width:1.0;"/><path d="M87.0156,177.875 Q87.1719,177.6563 87.3594,177.5469 Q87.5469,177.4375 87.7656,177.4375 Q88.1406,177.4375 88.375,177.7031 Q88.6094,177.9531 88.6094,178.5625 L88.6094,180.0156 Q88.6094,180.625 88.375,180.8906 Q88.1406,181.1563 87.7656,181.1563 Q87.4219,181.1563 87.2188,180.9531 Q87.0156,180.7656 86.9063,180.25 Q86.8594,179.8906 86.6719,179.7031 Q86.3438,179.3281 85.7344,179.1094 Q85.125,178.8906 84.5,178.8906 Q83.7344,178.8906 83.0938,179.2188 Q82.4688,179.5469 81.9688,180.2969 Q81.4844,181.0469 81.4844,182.0781 L81.4844,183.1719 Q81.4844,184.4063 82.375,185.2344 Q83.2656,186.0469 84.8594,186.0469 Q85.7969,186.0469 86.4531,185.7969 Q86.8438,185.6406 87.2656,185.2031 Q87.5313,184.9375 87.6719,184.8594 Q87.8281,184.7813 88.0313,184.7813 Q88.3594,184.7813 88.6094,185.0469 Q88.875,185.2969 88.875,185.6406 Q88.875,185.9844 88.5313,186.3906 Q88.0313,186.9688 87.2344,187.2969 Q86.1563,187.75 84.8594,187.75 Q83.3438,187.75 82.1406,187.125 Q81.1563,186.625 80.4688,185.5625 Q79.7813,184.4844 79.7813,183.2031 L79.7813,182.0469 Q79.7813,180.7188 80.3906,179.5781 Q81.0156,178.4219 82.1094,177.8125 Q83.2031,177.1875 84.4375,177.1875 Q85.1719,177.1875 85.8125,177.3594 Q86.4688,177.5156 87.0156,177.875 Z " fill="#000000"/><text fill="#000000" font-family="sans-serif" font-size="14" lengthAdjust="spacing" textLength="61" x="104.75" y="187.7285">Ejercicio3</text><line style="stroke:#181818;stroke-width:0.5;" x1="23.5" x2="214.5" y1="198" y2="198"/><line style="stroke:#181818;stroke-width:0.5;" x1="23.5" x2="214.5" y1="206" y2="206"/><ellipse cx="33.5" cy="220.3047" fill="#84BE84" rx="3" ry="3" style="stroke:#038048;stroke-width:1.0;"/><text fill="#000000" font-family="sans-serif" font-size="14" lengthAdjust="spacing" textLength="167" x="42.5" y="224.5332">enmascarar(String): String</text></g></a><!--class java.lang.Object--><g id="elem_java.lang.Object"><rect codeLine="11" fill="#F1F1F1" height="48" id="java.lang.Object" rx="2.5" ry="2.5" style="stroke:#181818;stroke-width:0.5;" width="73" x="82.5" y="42"/><ellipse cx="97.5" cy="58" fill="#ADD1B2" rx="11" ry="11" style="stroke:#181818;stroke-width:1.0;"/><path d="M100.2656,53.875 Q100.4219,53.6563 100.6094,53.5469 Q100.7969,53.4375 101.0156,53.4375 Q101.3906,53.4375 101.625,53.7031 Q101.8594,53.9531 101.8594,54.5625 L101.8594,56.0156 Q101.8594,56.625 101.625,56.8906 Q101.3906,57.1563 101.0156,57.1563 Q100.6719,57.1563 100.4688,56.9531 Q100.2656,56.7656 100.1563,56.25 Q100.1094,55.8906 99.9219,55.7031 Q99.5938,55.3281 98.9844,55.1094 Q98.375,54.8906 97.75,54.8906 Q96.9844,54.8906 96.3438,55.2188 Q95.7188,55.5469 95.2188,56.2969 Q94.7344,57.0469 94.7344,58.0781 L94.7344,59.1719 Q94.7344,60.4063 95.625,61.2344 Q96.5156,62.0469 98.1094,62.0469 Q99.0469,62.0469 99.7031,61.7969 Q100.0938,61.6406 100.5156,61.2031 Q100.7813,60.9375 100.9219,60.8594 Q101.0781,60.7813 101.2813,60.7813 Q101.6094,60.7813 101.8594,61.0469 Q102.125,61.2969 102.125,61.6406 Q102.125,61.9844 101.7813,62.3906 Q101.2813,62.9688 100.4844,63.2969 Q99.4063,63.75 98.1094,63.75 Q96.5938,63.75 95.3906,63.125 Q94.4063,62.625 93.7188,61.5625 Q93.0313,60.4844 93.0313,59.2031 L93.0313,58.0469 Q93.0313,56.7188 93.6406,55.5781 Q94.2656,54.4219 95.3594,53.8125 Q96.4531,53.1875 97.6875,53.1875 Q98.4219,53.1875 99.0625,53.3594 Q99.7188,53.5156 100.2656,53.875 Z " fill="#000000"/><text fill="#000000" font-family="sans-serif" font-size="14" lengthAdjust="spacing" textLength="41" x="111.5" y="63.7285">Object</text><line style="stroke:#181818;stroke-width:0.5;" x1="83.5" x2="154.5" y1="74" y2="74"/><line style="stroke:#181818;stroke-width:0.5;" x1="83.5" x2="154.5" y1="82" y2="82"/></g><!--reverse link java.lang.Object to ual.hmis.sesion05.ejercicio3.Ejercicio3--><g id="link_java.lang.Object_ual.hmis.sesion05.ejercicio3.Ejercicio3"><path codeLine="7" d="M119,110.16 C119,128.29 119,149.01 119,165.78 " fill="none" id="java.lang.Object-backto-ual.hmis.sesion05.ejercicio3.Ejercicio3" style="stroke:#181818;stroke-width:1.0;"/><polygon fill="none" points="112,110.12,119,90.12,126,110.12,112,110.12" style="stroke:#181818;stroke-width:1.0;"/></g><text fill="#888888" font-family="sans-serif" font-size="10" lengthAdjust="spacing" textLength="184" x="20.5" y="264.3809">UMLDoclet 2.1.0, PlantUML 1.2022.14</text><!--SRC=[JL0z2y8m4DtxAsuHMhIXAYxYg9kY84wbmndEDYKVaiGkwd-tfTBaBVVrxjxZ000qAd9Fv0GlbAnHmZ57JXXTR1YrPBdWmgpXdIJm1vVe71p2h2n3mHglP5NrV8Wm9wtGSRHeqwktGjVP5iPauds3GeiTCecwPkTxIzp3xfFdaM8IyOF_QIiI7xsEL-8jJjgJXOSnGxYTZdl39NbOiIKh5d3fp_Y-2xEExF2CDFi1]--></g></svg>