<?xml version="1.0" encoding="UTF-8" standalone="no"?><svg xmlns="http://www.w3.org/2000/svg" xmlns:xlink="http://www.w3.org/1999/xlink" contentStyleType="text/css" height="291px" preserveAspectRatio="none" style="width:345px;height:291px;background:#FFFFFF;" version="1.1" viewBox="0 0 345 291" width="345px" zoomAndPan="magnify"><defs/><g><!--cluster ual.hmis.sesion05.ejercicio3--><g id="cluster_ual.hmis.sesion05.ejercicio3"><path d="M8.5,130 L207.5,130 A3.75,3.75 0 0 1 210,132.5 L217,153.6094 L335.5,153.6094 A2.5,2.5 0 0 1 338,156.1094 L338,262.5 A2.5,2.5 0 0 1 335.5,265 L8.5,265 A2.5,2.5 0 0 1 6,262.5 L6,132.5 A2.5,2.5 0 0 1 8.5,130 " fill="none" style="stroke:#000000;stroke-width:1.5;"/><line style="stroke:#000000;stroke-width:1.5;" x1="6" x2="217" y1="153.6094" y2="153.6094"/><text fill="#000000" font-family="sans-serif" font-size="14" font-weight="bold" lengthAdjust="spacing" textLength="198" x="10" y="146.5332">ual.hmis.sesion05.ejercicio3</text></g><!--cluster java.lang--><g id="cluster_java.lang"><path d="M121.5,6 L185.5,6 A3.75,3.75 0 0 1 188,8.5 L195,29.6094 L222.5,29.6094 A2.5,2.5 0 0 1 225,32.1094 L225,103.5 A2.5,2.5 0 0 1 222.5,106 L121.5,106 A2.5,2.5 0 0 1 119,103.5 L119,8.5 A2.5,2.5 0 0 1 121.5,6 " fill="none" style="stroke:#000000;stroke-width:1.5;"/><line style="stroke:#000000;stroke-width:1.5;" x1="119" x2="195" y1="29.6094" y2="29.6094"/><text fill="#000000" font-family="sans-serif" font-size="14" font-weight="bold" lengthAdjust="spacing" textLength="63" x="123" y="22.5332">java.lang</text></g><!--class ual.hmis.sesion05.ejercicio3.TestEjercicio3--><a href="TestEjercicio3.html" target="_top" title="TestEjercicio3.html" xlink:actuate="onRequest" xlink:href="TestEjercicio3.html" xlink:show="new" xlink:title="TestEjercicio3.html" xlink:type="simple"><g id="elem_ual.hmis.sesion05.ejercicio3.TestEjercicio3"><rect codeLine="3" fill="#F1F1F1" height="83.2188" id="ual.hmis.sesion05.ejercicio3.TestEjercicio3" rx="2.5" ry="2.5" style="stroke:#181818;stroke-width:0.5;" width="299" x="22.5" y="166"/><ellipse cx="123.25" cy="182" fill="#ADD1B2" rx="11" ry="11" style="stroke:#181818;stroke-width:1.0;"/><path d="M126.0156,177.875 Q126.1719,177.6563 126.3594,177.5469 Q126.5469,177.4375 126.7656,177.4375 Q127.1406,177.4375 127.375,177.7031 Q127.6094,177.9531 127.6094,178.5625 L127.6094,180.0156 Q127.6094,180.625 127.375,180.8906 Q127.1406,181.1563 126.7656,181.1563 Q126.4219,181.1563 126.2188,180.9531 Q126.0156,180.7656 125.9063,180.25 Q125.8594,179.8906 125.6719,179.7031 Q125.3438,179.3281 124.7344,179.1094 Q124.125,178.8906 123.5,178.8906 Q122.7344,178.8906 122.0938,179.2188 Q121.4688,179.5469 120.9688,180.2969 Q120.4844,181.0469 120.4844,182.0781 L120.4844,183.1719 Q120.4844,184.4063 121.375,185.2344 Q122.2656,186.0469 123.8594,186.0469 Q124.7969,186.0469 125.4531,185.7969 Q125.8438,185.6406 126.2656,185.2031 Q126.5313,184.9375 126.6719,184.8594 Q126.8281,184.7813 127.0313,184.7813 Q127.3594,184.7813 127.6094,185.0469 Q127.875,185.2969 127.875,185.6406 Q127.875,185.9844 127.5313,186.3906 Q127.0313,186.9688 126.2344,187.2969 Q125.1563,187.75 123.8594,187.75 Q122.3438,187.75 121.1406,187.125 Q120.1563,186.625 119.4688,185.5625 Q118.7813,184.4844 118.7813,183.2031 L118.7813,182.0469 Q118.7813,180.7188 119.3906,179.5781 Q120.0156,178.4219 121.1094,177.8125 Q122.2031,177.1875 123.4375,177.1875 Q124.1719,177.1875 124.8125,177.3594 Q125.4688,177.5156 126.0156,177.875 Z " fill="#000000"/><text fill="#000000" font-family="sans-serif" font-size="14" lengthAdjust="spacing" textLength="89" x="143.75" y="187.7285">TestEjercicio3</text><line style="stroke:#181818;stroke-width:0.5;" x1="23.5" x2="320.5" y1="198" y2="198"/><line style="stroke:#181818;stroke-width:0.5;" x1="23.5" x2="320.5" y1="206" y2="206"/><polygon fill="#4177AF" points="33.5,216.3047,29.5,222.3047,37.5,222.3047" style="stroke:#1963A0;stroke-width:1.0;"/><text fill="#000000" font-family="sans-serif" font-size="14" lengthAdjust="spacing" textLength="273" x="42.5" y="224.5332">testEnmascararMenosDeDoce(String): void</text><polygon fill="#4177AF" points="33.5,233.9141,29.5,239.9141,37.5,239.9141" style="stroke:#1963A0;stroke-width:1.0;"/><text fill="#000000" font-family="sans-serif" font-size="14" lengthAdjust="spacing" textLength="257" x="42.5" y="242.1426">testEnmascararMasDeDoce(String): void</text></g></a><!--class java.lang.Object--><g id="elem_java.lang.Object"><rect codeLine="12" fill="#F1F1F1" height="48" id="java.lang.Object" rx="2.5" ry="2.5" style="stroke:#181818;stroke-width:0.5;" width="73" x="135.5" y="42"/><ellipse cx="150.5" cy="58" fill="#ADD1B2" rx="11" ry="11" style="stroke:#181818;stroke-width:1.0;"/><path d="M153.2656,53.875 Q153.4219,53.6563 153.6094,53.5469 Q153.7969,53.4375 154.0156,53.4375 Q154.3906,53.4375 154.625,53.7031 Q154.8594,53.9531 154.8594,54.5625 L154.8594,56.0156 Q154.8594,56.625 154.625,56.8906 Q154.3906,57.1563 154.0156,57.1563 Q153.6719,57.1563 153.4688,56.9531 Q153.2656,56.7656 153.1563,56.25 Q153.1094,55.8906 152.9219,55.7031 Q152.5938,55.3281 151.9844,55.1094 Q151.375,54.8906 150.75,54.8906 Q149.9844,54.8906 149.3438,55.2188 Q148.7188,55.5469 148.2188,56.2969 Q147.7344,57.0469 147.7344,58.0781 L147.7344,59.1719 Q147.7344,60.4063 148.625,61.2344 Q149.5156,62.0469 151.1094,62.0469 Q152.0469,62.0469 152.7031,61.7969 Q153.0938,61.6406 153.5156,61.2031 Q153.7813,60.9375 153.9219,60.8594 Q154.0781,60.7813 154.2813,60.7813 Q154.6094,60.7813 154.8594,61.0469 Q155.125,61.2969 155.125,61.6406 Q155.125,61.9844 154.7813,62.3906 Q154.2813,62.9688 153.4844,63.2969 Q152.4063,63.75 151.1094,63.75 Q149.5938,63.75 148.3906,63.125 Q147.4063,62.625 146.7188,61.5625 Q146.0313,60.4844 146.0313,59.2031 L146.0313,58.0469 Q146.0313,56.7188 146.6406,55.5781 Q147.2656,54.4219 148.3594,53.8125 Q149.4531,53.1875 150.6875,53.1875 Q151.4219,53.1875 152.0625,53.3594 Q152.7188,53.5156 153.2656,53.875 Z " fill="#000000"/><text fill="#000000" font-family="sans-serif" font-size="14" lengthAdjust="spacing" textLength="41" x="164.5" y="63.7285">Object</text><line style="stroke:#181818;stroke-width:0.5;" x1="136.5" x2="207.5" y1="74" y2="74"/><line style="stroke:#181818;stroke-width:0.5;" x1="136.5" x2="207.5" y1="82" y2="82"/></g><!--reverse link java.lang.Object to ual.hmis.sesion05.ejercicio3.TestEjercicio3--><g id="link_java.lang.Object_ual.hmis.sesion05.ejercicio3.TestEjercicio3"><path codeLine="8" d="M172,110.31 C172,128.06 172,148.48 172,165.93 " fill="none" id="java.lang.Object-backto-ual.hmis.sesion05.ejercicio3.TestEjercicio3" style="stroke:#181818;stroke-width:1.0;"/><polygon fill="none" points="165,110.04,172,90.04,179,110.04,165,110.04" style="stroke:#181818;stroke-width:1.0;"/></g><text fill="#888888" font-family="sans-serif" font-size="10" lengthAdjust="spacing" textLength="184" x="73.5" y="281.3809">UMLDoclet 2.1.0, PlantUML 1.2022.14</text><!--SRC=[VP0z2y9038Rt_eeiGWlsy0CNSQoReg1EuX3Fs5wvtidbxEB7RxUbOgk3MG9lyhoy2G20mOBuWfBWYbfaXMB1nCgQmKHGJauggUmORa40xv8QcM5BxEVjVB__5aJc2tquL1nqwkdh9LCWItJebcGi9vHOIU76EsNIQ0gbLQU_4Fv77ctI74iK6aqgLiUSf8VPFOv_aWSTflt5X-mSqDpTE7KfISQJWxErTTij5rKuJHv6OYW6VLXNDhvIeLUIgnyRHYy0]--></g></svg>