<?xml version="1.0" encoding="UTF-8" standalone="no"?><svg xmlns="http://www.w3.org/2000/svg" xmlns:xlink="http://www.w3.org/1999/xlink" contentStyleType="text/css" height="274px" preserveAspectRatio="none" style="width:431px;height:274px;background:#FFFFFF;" version="1.1" viewBox="0 0 431 274" width="431px" zoomAndPan="magnify"><defs/><g><!--cluster ual.hmis.sesion05.ejercicio5--><g id="cluster_ual.hmis.sesion05.ejercicio5"><path d="M8.5,130 L207.5,130 A3.75,3.75 0 0 1 210,132.5 L217,153.6094 L421.5,153.6094 A2.5,2.5 0 0 1 424,156.1094 L424,245.5 A2.5,2.5 0 0 1 421.5,248 L8.5,248 A2.5,2.5 0 0 1 6,245.5 L6,132.5 A2.5,2.5 0 0 1 8.5,130 " fill="none" style="stroke:#000000;stroke-width:1.5;"/><line style="stroke:#000000;stroke-width:1.5;" x1="6" x2="217" y1="153.6094" y2="153.6094"/><text fill="#000000" font-family="sans-serif" font-size="14" font-weight="bold" lengthAdjust="spacing" textLength="198" x="10" y="146.5332">ual.hmis.sesion05.ejercicio5</text></g><!--cluster java.lang--><g id="cluster_java.lang"><path d="M164.5,6 L228.5,6 A3.75,3.75 0 0 1 231,8.5 L238,29.6094 L265.5,29.6094 A2.5,2.5 0 0 1 268,32.1094 L268,103.5 A2.5,2.5 0 0 1 265.5,106 L164.5,106 A2.5,2.5 0 0 1 162,103.5 L162,8.5 A2.5,2.5 0 0 1 164.5,6 " fill="none" style="stroke:#000000;stroke-width:1.5;"/><line style="stroke:#000000;stroke-width:1.5;" x1="162" x2="238" y1="29.6094" y2="29.6094"/><text fill="#000000" font-family="sans-serif" font-size="14" font-weight="bold" lengthAdjust="spacing" textLength="63" x="166" y="22.5332">java.lang</text></g><!--class ual.hmis.sesion05.ejercicio5.Ejercicio5--><a href="Ejercicio5.html" target="_top" title="Ejercicio5.html" xlink:actuate="onRequest" xlink:href="Ejercicio5.html" xlink:show="new" xlink:title="Ejercicio5.html" xlink:type="simple"><g id="elem_ual.hmis.sesion05.ejercicio5.Ejercicio5"><rect codeLine="3" fill="#F1F1F1" height="65.6094" id="ual.hmis.sesion05.ejercicio5.Ejercicio5" rx="2.5" ry="2.5" style="stroke:#181818;stroke-width:0.5;" width="386" x="22" y="166"/><ellipse cx="180.25" cy="182" fill="#ADD1B2" rx="11" ry="11" style="stroke:#181818;stroke-width:1.0;"/><path d="M183.0156,177.875 Q183.1719,177.6563 183.3594,177.5469 Q183.5469,177.4375 183.7656,177.4375 Q184.1406,177.4375 184.375,177.7031 Q184.6094,177.9531 184.6094,178.5625 L184.6094,180.0156 Q184.6094,180.625 184.375,180.8906 Q184.1406,181.1563 183.7656,181.1563 Q183.4219,181.1563 183.2188,180.9531 Q183.0156,180.7656 182.9063,180.25 Q182.8594,179.8906 182.6719,179.7031 Q182.3438,179.3281 181.7344,179.1094 Q181.125,178.8906 180.5,178.8906 Q179.7344,178.8906 179.0938,179.2188 Q178.4688,179.5469 177.9688,180.2969 Q177.4844,181.0469 177.4844,182.0781 L177.4844,183.1719 Q177.4844,184.4063 178.375,185.2344 Q179.2656,186.0469 180.8594,186.0469 Q181.7969,186.0469 182.4531,185.7969 Q182.8438,185.6406 183.2656,185.2031 Q183.5313,184.9375 183.6719,184.8594 Q183.8281,184.7813 184.0313,184.7813 Q184.3594,184.7813 184.6094,185.0469 Q184.875,185.2969 184.875,185.6406 Q184.875,185.9844 184.5313,186.3906 Q184.0313,186.9688 183.2344,187.2969 Q182.1563,187.75 180.8594,187.75 Q179.3438,187.75 178.1406,187.125 Q177.1563,186.625 176.4688,185.5625 Q175.7813,184.4844 175.7813,183.2031 L175.7813,182.0469 Q175.7813,180.7188 176.3906,179.5781 Q177.0156,178.4219 178.1094,177.8125 Q179.2031,177.1875 180.4375,177.1875 Q181.1719,177.1875 181.8125,177.3594 Q182.4688,177.5156 183.0156,177.875 Z " fill="#000000"/><text fill="#000000" font-family="sans-serif" font-size="14" lengthAdjust="spacing" textLength="61" x="200.75" y="187.7285">Ejercicio5</text><line style="stroke:#181818;stroke-width:0.5;" x1="23" x2="407" y1="198" y2="198"/><line style="stroke:#181818;stroke-width:0.5;" x1="23" x2="407" y1="206" y2="206"/><ellipse cx="33" cy="220.3047" fill="#84BE84" rx="3" ry="3" style="stroke:#038048;stroke-width:1.0;"/><text fill="#000000" font-family="sans-serif" font-size="14" lengthAdjust="spacing" textLength="360" x="42" y="224.5332">fusionarListas(List&lt;Integer&gt;, List&lt;Integer&gt;): List&lt;Integer&gt;</text></g></a><!--class java.lang.Object--><g id="elem_java.lang.Object"><rect codeLine="11" fill="#F1F1F1" height="48" id="java.lang.Object" rx="2.5" ry="2.5" style="stroke:#181818;stroke-width:0.5;" width="73" x="178.5" y="42"/><ellipse cx="193.5" cy="58" fill="#ADD1B2" rx="11" ry="11" style="stroke:#181818;stroke-width:1.0;"/><path d="M196.2656,53.875 Q196.4219,53.6563 196.6094,53.5469 Q196.7969,53.4375 197.0156,53.4375 Q197.3906,53.4375 197.625,53.7031 Q197.8594,53.9531 197.8594,54.5625 L197.8594,56.0156 Q197.8594,56.625 197.625,56.8906 Q197.3906,57.1563 197.0156,57.1563 Q196.6719,57.1563 196.4688,56.9531 Q196.2656,56.7656 196.1563,56.25 Q196.1094,55.8906 195.9219,55.7031 Q195.5938,55.3281 194.9844,55.1094 Q194.375,54.8906 193.75,54.8906 Q192.9844,54.8906 192.3438,55.2188 Q191.7188,55.5469 191.2188,56.2969 Q190.7344,57.0469 190.7344,58.0781 L190.7344,59.1719 Q190.7344,60.4063 191.625,61.2344 Q192.5156,62.0469 194.1094,62.0469 Q195.0469,62.0469 195.7031,61.7969 Q196.0938,61.6406 196.5156,61.2031 Q196.7813,60.9375 196.9219,60.8594 Q197.0781,60.7813 197.2813,60.7813 Q197.6094,60.7813 197.8594,61.0469 Q198.125,61.2969 198.125,61.6406 Q198.125,61.9844 197.7813,62.3906 Q197.2813,62.9688 196.4844,63.2969 Q195.4063,63.75 194.1094,63.75 Q192.5938,63.75 191.3906,63.125 Q190.4063,62.625 189.7188,61.5625 Q189.0313,60.4844 189.0313,59.2031 L189.0313,58.0469 Q189.0313,56.7188 189.6406,55.5781 Q190.2656,54.4219 191.3594,53.8125 Q192.4531,53.1875 193.6875,53.1875 Q194.4219,53.1875 195.0625,53.3594 Q195.7188,53.5156 196.2656,53.875 Z " fill="#000000"/><text fill="#000000" font-family="sans-serif" font-size="14" lengthAdjust="spacing" textLength="41" x="207.5" y="63.7285">Object</text><line style="stroke:#181818;stroke-width:0.5;" x1="179.5" x2="250.5" y1="74" y2="74"/><line style="stroke:#181818;stroke-width:0.5;" x1="179.5" x2="250.5" y1="82" y2="82"/></g><!--reverse link java.lang.Object to ual.hmis.sesion05.ejercicio5.Ejercicio5--><g id="link_java.lang.Object_ual.hmis.sesion05.ejercicio5.Ejercicio5"><path codeLine="7" d="M215,110.16 C215,128.29 215,149.01 215,165.78 " fill="none" id="java.lang.Object-backto-ual.hmis.sesion05.ejercicio5.Ejercicio5" style="stroke:#181818;stroke-width:1.0;"/><polygon fill="none" points="208,110.12,215,90.12,222,110.12,208,110.12" style="stroke:#181818;stroke-width:1.0;"/></g><text fill="#888888" font-family="sans-serif" font-size="10" lengthAdjust="spacing" textLength="184" x="116.5" y="264.3809">UMLDoclet 2.1.0, PlantUML 1.2022.14</text><!--SRC=[LK-x2i904Epp5Ti81dM9Wes8bHP2H1kha68zLhrmoSdj9OtwxoP4p3dDClkOdG40gAXaUP1YgCdWlTI2mg9jbIoH2tPAAssNy8mY-48P4e7TCCkoWU3TboRFstq8CBdMdIIvL8id6NTblQyytzXjfl17uzK__mcz1mi5DOI6gXiUBmKh3-lNR1POYeBz8U3lAd3NX-bLmYl5xNi7LskxSZwaMwiCUrZW79Cfd5ePttPXrB3heetZ3m00]--></g></svg>