<?xml version="1.0" encoding="UTF-8" standalone="no"?><svg xmlns="http://www.w3.org/2000/svg" xmlns:xlink="http://www.w3.org/1999/xlink" contentStyleType="text/css" height="309px" preserveAspectRatio="none" style="width:375px;height:309px;background:#FFFFFF;" version="1.1" viewBox="0 0 375 309" width="375px" zoomAndPan="magnify"><defs/><g><!--cluster ual.hmis.sesion05.ejercicio2--><g id="cluster_ual.hmis.sesion05.ejercicio2"><path d="M8.5,130 L207.5,130 A3.75,3.75 0 0 1 210,132.5 L217,153.6094 L365.5,153.6094 A2.5,2.5 0 0 1 368,156.1094 L368,280.5 A2.5,2.5 0 0 1 365.5,283 L8.5,283 A2.5,2.5 0 0 1 6,280.5 L6,132.5 A2.5,2.5 0 0 1 8.5,130 " fill="none" style="stroke:#000000;stroke-width:1.5;"/><line style="stroke:#000000;stroke-width:1.5;" x1="6" x2="217" y1="153.6094" y2="153.6094"/><text fill="#000000" font-family="sans-serif" font-size="14" font-weight="bold" lengthAdjust="spacing" textLength="198" x="10" y="146.5332">ual.hmis.sesion05.ejercicio2</text></g><!--cluster java.lang--><g id="cluster_java.lang"><path d="M136.5,6 L200.5,6 A3.75,3.75 0 0 1 203,8.5 L210,29.6094 L237.5,29.6094 A2.5,2.5 0 0 1 240,32.1094 L240,103.5 A2.5,2.5 0 0 1 237.5,106 L136.5,106 A2.5,2.5 0 0 1 134,103.5 L134,8.5 A2.5,2.5 0 0 1 136.5,6 " fill="none" style="stroke:#000000;stroke-width:1.5;"/><line style="stroke:#000000;stroke-width:1.5;" x1="134" x2="210" y1="29.6094" y2="29.6094"/><text fill="#000000" font-family="sans-serif" font-size="14" font-weight="bold" lengthAdjust="spacing" textLength="63" x="138" y="22.5332">java.lang</text></g><!--class ual.hmis.sesion05.ejercicio2.TestEjercicio2--><a href="TestEjercicio2.html" target="_top" title="TestEjercicio2.html" xlink:actuate="onRequest" xlink:href="TestEjercicio2.html" xlink:show="new" xlink:title="TestEjercicio2.html" xlink:type="simple"><g id="elem_ual.hmis.sesion05.ejercicio2.TestEjercicio2"><rect codeLine="3" fill="#F1F1F1" height="100.8281" id="ual.hmis.sesion05.ejercicio2.TestEjercicio2" rx="2.5" ry="2.5" style="stroke:#181818;stroke-width:0.5;" width="329" x="22.5" y="166"/><ellipse cx="138.25" cy="182" fill="#ADD1B2" rx="11" ry="11" style="stroke:#181818;stroke-width:1.0;"/><path d="M141.0156,177.875 Q141.1719,177.6563 141.3594,177.5469 Q141.5469,177.4375 141.7656,177.4375 Q142.1406,177.4375 142.375,177.7031 Q142.6094,177.9531 142.6094,178.5625 L142.6094,180.0156 Q142.6094,180.625 142.375,180.8906 Q142.1406,181.1563 141.7656,181.1563 Q141.4219,181.1563 141.2188,180.9531 Q141.0156,180.7656 140.9063,180.25 Q140.8594,179.8906 140.6719,179.7031 Q140.3438,179.3281 139.7344,179.1094 Q139.125,178.8906 138.5,178.8906 Q137.7344,178.8906 137.0938,179.2188 Q136.4688,179.5469 135.9688,180.2969 Q135.4844,181.0469 135.4844,182.0781 L135.4844,183.1719 Q135.4844,184.4063 136.375,185.2344 Q137.2656,186.0469 138.8594,186.0469 Q139.7969,186.0469 140.4531,185.7969 Q140.8438,185.6406 141.2656,185.2031 Q141.5313,184.9375 141.6719,184.8594 Q141.8281,184.7813 142.0313,184.7813 Q142.3594,184.7813 142.6094,185.0469 Q142.875,185.2969 142.875,185.6406 Q142.875,185.9844 142.5313,186.3906 Q142.0313,186.9688 141.2344,187.2969 Q140.1563,187.75 138.8594,187.75 Q137.3438,187.75 136.1406,187.125 Q135.1563,186.625 134.4688,185.5625 Q133.7813,184.4844 133.7813,183.2031 L133.7813,182.0469 Q133.7813,180.7188 134.3906,179.5781 Q135.0156,178.4219 136.1094,177.8125 Q137.2031,177.1875 138.4375,177.1875 Q139.1719,177.1875 139.8125,177.3594 Q140.4688,177.5156 141.0156,177.875 Z " fill="#000000"/><text fill="#000000" font-family="sans-serif" font-size="14" lengthAdjust="spacing" textLength="89" x="158.75" y="187.7285">TestEjercicio2</text><line style="stroke:#181818;stroke-width:0.5;" x1="23.5" x2="350.5" y1="198" y2="198"/><line style="stroke:#181818;stroke-width:0.5;" x1="23.5" x2="350.5" y1="206" y2="206"/><polygon fill="#4177AF" points="33.5,216.3047,29.5,222.3047,37.5,222.3047" style="stroke:#1963A0;stroke-width:1.0;"/><text fill="#000000" font-family="sans-serif" font-size="14" lengthAdjust="spacing" textLength="239" x="42.5" y="224.5332">testLoginCorrecto(String, String): void</text><polygon fill="#4177AF" points="33.5,233.9141,29.5,239.9141,37.5,239.9141" style="stroke:#1963A0;stroke-width:1.0;"/><text fill="#000000" font-family="sans-serif" font-size="14" lengthAdjust="spacing" textLength="303" x="42.5" y="242.1426">testValoresVaciosYLongitud(String, String): void</text><polygon fill="#4177AF" points="33.5,251.5234,29.5,257.5234,37.5,257.5234" style="stroke:#1963A0;stroke-width:1.0;"/><text fill="#000000" font-family="sans-serif" font-size="14" lengthAdjust="spacing" textLength="302" x="42.5" y="259.752">testCredencialesIncorrectas(String, String): void</text></g></a><!--class java.lang.Object--><g id="elem_java.lang.Object"><rect codeLine="13" fill="#F1F1F1" height="48" id="java.lang.Object" rx="2.5" ry="2.5" style="stroke:#181818;stroke-width:0.5;" width="73" x="150.5" y="42"/><ellipse cx="165.5" cy="58" fill="#ADD1B2" rx="11" ry="11" style="stroke:#181818;stroke-width:1.0;"/><path d="M168.2656,53.875 Q168.4219,53.6563 168.6094,53.5469 Q168.7969,53.4375 169.0156,53.4375 Q169.3906,53.4375 169.625,53.7031 Q169.8594,53.9531 169.8594,54.5625 L169.8594,56.0156 Q169.8594,56.625 169.625,56.8906 Q169.3906,57.1563 169.0156,57.1563 Q168.6719,57.1563 168.4688,56.9531 Q168.2656,56.7656 168.1563,56.25 Q168.1094,55.8906 167.9219,55.7031 Q167.5938,55.3281 166.9844,55.1094 Q166.375,54.8906 165.75,54.8906 Q164.9844,54.8906 164.3438,55.2188 Q163.7188,55.5469 163.2188,56.2969 Q162.7344,57.0469 162.7344,58.0781 L162.7344,59.1719 Q162.7344,60.4063 163.625,61.2344 Q164.5156,62.0469 166.1094,62.0469 Q167.0469,62.0469 167.7031,61.7969 Q168.0938,61.6406 168.5156,61.2031 Q168.7813,60.9375 168.9219,60.8594 Q169.0781,60.7813 169.2813,60.7813 Q169.6094,60.7813 169.8594,61.0469 Q170.125,61.2969 170.125,61.6406 Q170.125,61.9844 169.7813,62.3906 Q169.2813,62.9688 168.4844,63.2969 Q167.4063,63.75 166.1094,63.75 Q164.5938,63.75 163.3906,63.125 Q162.4063,62.625 161.7188,61.5625 Q161.0313,60.4844 161.0313,59.2031 L161.0313,58.0469 Q161.0313,56.7188 161.6406,55.5781 Q162.2656,54.4219 163.3594,53.8125 Q164.4531,53.1875 165.6875,53.1875 Q166.4219,53.1875 167.0625,53.3594 Q167.7188,53.5156 168.2656,53.875 Z " fill="#000000"/><text fill="#000000" font-family="sans-serif" font-size="14" lengthAdjust="spacing" textLength="41" x="179.5" y="63.7285">Object</text><line style="stroke:#181818;stroke-width:0.5;" x1="151.5" x2="222.5" y1="74" y2="74"/><line style="stroke:#181818;stroke-width:0.5;" x1="151.5" x2="222.5" y1="82" y2="82"/></g><!--reverse link java.lang.Object to ual.hmis.sesion05.ejercicio2.TestEjercicio2--><g id="link_java.lang.Object_ual.hmis.sesion05.ejercicio2.TestEjercicio2"><path codeLine="9" d="M187,110.35 C187,127.7 187,147.8 187,165.74 " fill="none" id="java.lang.Object-backto-ual.hmis.sesion05.ejercicio2.TestEjercicio2" style="stroke:#181818;stroke-width:1.0;"/><polygon fill="none" points="180,110.2,187,90.2,194,110.2,180,110.2" style="stroke:#181818;stroke-width:1.0;"/></g><text fill="#888888" font-family="sans-serif" font-size="10" lengthAdjust="spacing" textLength="184" x="88.5" y="299.3809">UMLDoclet 2.1.0, PlantUML 1.2022.14</text><!--SRC=[ZP5DImD138Rl-ojo4LfeXrhm8jwg1s55GIr8wI5cupRBx4GcqxtuyTkTikAkUj1S0acUD-GD0430bkqPYM6FtkrQCMTiec5nuhZXI4AYItWf2lWCycW6TspfOkXlDjyBRfTQlzrc3aRndl9GgRM4bSR8b7HocwA4UWPzdfv2frBzXjReDRAjCOlRGwcXbhIl_akl8bSSID2pNGRgTwFzWRyDDpVOeVCOQdVzs6GMpbxdynyU52DcSFMB75dHEzWhZIdYa3Z2a-eXtL-LvqgU4opTiLlCu2RBf5o5euxZuKMJwGS0]--></g></svg>