<?xml version="1.0" encoding="UTF-8" standalone="no"?><svg xmlns="http://www.w3.org/2000/svg" xmlns:xlink="http://www.w3.org/1999/xlink" contentStyleType="text/css" height="234px" preserveAspectRatio="none" style="width:345px;height:234px;background:#FFFFFF;" version="1.1" viewBox="0 0 345 234" width="345px" zoomAndPan="magnify"><defs/><g><!--class ual.hmis.sesion05.ejercicio2.TestEjercicio2--><a href="TestEjercicio2.html" target="_top" title="TestEjercicio2.html" xlink:actuate="onRequest" xlink:href="TestEjercicio2.html" xlink:show="new" xlink:title="TestEjercicio2.html" xlink:type="simple"><g id="elem_ual.hmis.sesion05.ejercicio2.TestEjercicio2"><rect codeLine="5" fill="#F1F1F1" height="101.0156" id="ual.hmis.sesion05.ejercicio2.TestEjercicio2" rx="2.5" ry="2.5" style="stroke:#181818;stroke-width:0.5;" width="329" x="9" y="107"/><ellipse cx="101.75" cy="127.0938" fill="#ADD1B2" rx="11" ry="11" style="stroke:#181818;stroke-width:1.0;"/><path d="M104.5156,122.9688 Q104.6719,122.75 104.8594,122.6406 Q105.0469,122.5313 105.2656,122.5313 Q105.6406,122.5313 105.875,122.7969 Q106.1094,123.0469 106.1094,123.6563 L106.1094,125.1094 Q106.1094,125.7188 105.875,125.9844 Q105.6406,126.25 105.2656,126.25 Q104.9219,126.25 104.7188,126.0469 Q104.5156,125.8594 104.4063,125.3438 Q104.3594,124.9844 104.1719,124.7969 Q103.8438,124.4219 103.2344,124.2031 Q102.625,123.9844 102,123.9844 Q101.2344,123.9844 100.5938,124.3125 Q99.9688,124.6406 99.4688,125.3906 Q98.9844,126.1406 98.9844,127.1719 L98.9844,128.2656 Q98.9844,129.5 99.875,130.3281 Q100.7656,131.1406 102.3594,131.1406 Q103.2969,131.1406 103.9531,130.8906 Q104.3438,130.7344 104.7656,130.2969 Q105.0313,130.0313 105.1719,129.9531 Q105.3281,129.875 105.5313,129.875 Q105.8594,129.875 106.1094,130.1406 Q106.375,130.3906 106.375,130.7344 Q106.375,131.0781 106.0313,131.4844 Q105.5313,132.0625 104.7344,132.3906 Q103.6563,132.8438 102.3594,132.8438 Q100.8438,132.8438 99.6406,132.2188 Q98.6563,131.7188 97.9688,130.6563 Q97.2813,129.5781 97.2813,128.2969 L97.2813,127.1406 Q97.2813,125.8125 97.8906,124.6719 Q98.5156,123.5156 99.6094,122.9063 Q100.7031,122.2813 101.9375,122.2813 Q102.6719,122.2813 103.3125,122.4531 Q103.9688,122.6094 104.5156,122.9688 Z " fill="#000000"/><text fill="#000000" font-family="sans-serif" font-size="14" lengthAdjust="spacing" textLength="89" x="145.25" y="126.5332">TestEjercicio2</text><text fill="#000000" font-family="sans-serif" font-size="10" lengthAdjust="spacing" textLength="135" x="122.25" y="139.9902">ual.hmis.sesion05.ejercicio2</text><line style="stroke:#181818;stroke-width:0.5;" x1="10" x2="337" y1="147.1875" y2="147.1875"/><polygon fill="#4177AF" points="20,157.4922,16,163.4922,24,163.4922" style="stroke:#1963A0;stroke-width:1.0;"/><text fill="#000000" font-family="sans-serif" font-size="14" lengthAdjust="spacing" textLength="239" x="29" y="165.7207">testLoginCorrecto(String, String): void</text><polygon fill="#4177AF" points="20,175.1016,16,181.1016,24,181.1016" style="stroke:#1963A0;stroke-width:1.0;"/><text fill="#000000" font-family="sans-serif" font-size="14" lengthAdjust="spacing" textLength="303" x="29" y="183.3301">testValoresVaciosYLongitud(String, String): void</text><polygon fill="#4177AF" points="20,192.7109,16,198.7109,24,198.7109" style="stroke:#1963A0;stroke-width:1.0;"/><text fill="#000000" font-family="sans-serif" font-size="14" lengthAdjust="spacing" textLength="302" x="29" y="200.9395">testCredencialesIncorrectas(String, String): void</text></g></a><!--class java.lang.Object--><g id="elem_java.lang.Object"><rect codeLine="11" fill="#F1F1F1" height="40.1875" id="java.lang.Object" rx="2.5" ry="2.5" style="stroke:#181818;stroke-width:0.5;" width="76" x="135.5" y="7"/><ellipse cx="150.5" cy="27.0938" fill="#ADD1B2" rx="11" ry="11" style="stroke:#181818;stroke-width:1.0;"/><path d="M153.2656,22.9688 Q153.4219,22.75 153.6094,22.6406 Q153.7969,22.5313 154.0156,22.5313 Q154.3906,22.5313 154.625,22.7969 Q154.8594,23.0469 154.8594,23.6563 L154.8594,25.1094 Q154.8594,25.7188 154.625,25.9844 Q154.3906,26.25 154.0156,26.25 Q153.6719,26.25 153.4688,26.0469 Q153.2656,25.8594 153.1563,25.3438 Q153.1094,24.9844 152.9219,24.7969 Q152.5938,24.4219 151.9844,24.2031 Q151.375,23.9844 150.75,23.9844 Q149.9844,23.9844 149.3438,24.3125 Q148.7188,24.6406 148.2188,25.3906 Q147.7344,26.1406 147.7344,27.1719 L147.7344,28.2656 Q147.7344,29.5 148.625,30.3281 Q149.5156,31.1406 151.1094,31.1406 Q152.0469,31.1406 152.7031,30.8906 Q153.0938,30.7344 153.5156,30.2969 Q153.7813,30.0313 153.9219,29.9531 Q154.0781,29.875 154.2813,29.875 Q154.6094,29.875 154.8594,30.1406 Q155.125,30.3906 155.125,30.7344 Q155.125,31.0781 154.7813,31.4844 Q154.2813,32.0625 153.4844,32.3906 Q152.4063,32.8438 151.1094,32.8438 Q149.5938,32.8438 148.3906,32.2188 Q147.4063,31.7188 146.7188,30.6563 Q146.0313,29.5781 146.0313,28.2969 L146.0313,27.1406 Q146.0313,25.8125 146.6406,24.6719 Q147.2656,23.5156 148.3594,22.9063 Q149.4531,22.2813 150.6875,22.2813 Q151.4219,22.2813 152.0625,22.4531 Q152.7188,22.6094 153.2656,22.9688 Z " fill="#000000"/><text fill="#000000" font-family="sans-serif" font-size="14" lengthAdjust="spacing" textLength="41" x="166" y="26.5332">Object</text><text fill="#000000" font-family="sans-serif" font-size="10" lengthAdjust="spacing" textLength="44" x="164.5" y="39.9902">java.lang</text></g><!--reverse link java.lang.Object to ual.hmis.sesion05.ejercicio2.TestEjercicio2--><g id="link_java.lang.Object_ual.hmis.sesion05.ejercicio2.TestEjercicio2"><path codeLine="13" d="M173.5,67.52 C173.5,79.94 173.5,93.82 173.5,106.84 " fill="none" id="java.lang.Object-backto-ual.hmis.sesion05.ejercicio2.TestEjercicio2" style="stroke:#181818;stroke-width:1.0;"/><polygon fill="none" points="166.5,67.24,173.5,47.24,180.5,67.24,166.5,67.24" style="stroke:#181818;stroke-width:1.0;"/></g><text fill="#888888" font-family="sans-serif" font-size="10" lengthAdjust="spacing" textLength="184" x="73.5" y="224.3965">UMLDoclet 2.1.0, PlantUML 1.2022.14</text><!--SRC=[bL9DQm8n4BttLmn2GK63IdiHyM9xA5XQi1MAzJ3DZhkHR6R9n8L-_lPcTqMg56bp6VBclJV3Om00X08up4aAr3Id0Zq6zk3OqLbiGsOI0igBy0fhGpQHOpIda764QrnR587MMCmRZGONamUISBqXhuqsF7nskqP_iaMhijo84XB3hd-fQ4zh0GgS8gX3MrWk3m6LXTokLl1UxrIzhn09CqwDcxBtf0Etvy4RbtQXgPqHb6oIGy42BNkI1KPJUPgnIqtO9dzHJZqbvBH1ItBZT3CJvOJqy_S0xrusKVaZk0sMg2owj4vf_rCDiJ4vHc7yqUlz9z7TBkG2ULWpL-NnTdR5siPp6Qg1wdVXFau84ONpadpbsEvy0m00]--></g></svg>