<?xml version="1.0" encoding="UTF-8" standalone="no"?><svg xmlns="http://www.w3.org/2000/svg" xmlns:xlink="http://www.w3.org/1999/xlink" contentStyleType="text/css" height="274px" preserveAspectRatio="none" style="width:255px;height:274px;background:#FFFFFF;" version="1.1" viewBox="0 0 255 274" width="255px" zoomAndPan="magnify"><defs/><g><!--cluster ual.hmis.sesion05.ejercicio1--><g id="cluster_ual.hmis.sesion05.ejercicio1"><path d="M8.5,130 L207.5,130 A3.75,3.75 0 0 1 210,132.5 L217,153.6094 L245.5,153.6094 A2.5,2.5 0 0 1 248,156.1094 L248,245.5 A2.5,2.5 0 0 1 245.5,248 L8.5,248 A2.5,2.5 0 0 1 6,245.5 L6,132.5 A2.5,2.5 0 0 1 8.5,130 " fill="none" style="stroke:#000000;stroke-width:1.5;"/><line style="stroke:#000000;stroke-width:1.5;" x1="6" x2="217" y1="153.6094" y2="153.6094"/><text fill="#000000" font-family="sans-serif" font-size="14" font-weight="bold" lengthAdjust="spacing" textLength="198" x="10" y="146.5332">ual.hmis.sesion05.ejercicio1</text></g><!--cluster java.lang--><g id="cluster_java.lang"><path d="M76.5,6 L140.5,6 A3.75,3.75 0 0 1 143,8.5 L150,29.6094 L177.5,29.6094 A2.5,2.5 0 0 1 180,32.1094 L180,103.5 A2.5,2.5 0 0 1 177.5,106 L76.5,106 A2.5,2.5 0 0 1 74,103.5 L74,8.5 A2.5,2.5 0 0 1 76.5,6 " fill="none" style="stroke:#000000;stroke-width:1.5;"/><line style="stroke:#000000;stroke-width:1.5;" x1="74" x2="150" y1="29.6094" y2="29.6094"/><text fill="#000000" font-family="sans-serif" font-size="14" font-weight="bold" lengthAdjust="spacing" textLength="63" x="78" y="22.5332">java.lang</text></g><!--class ual.hmis.sesion05.ejercicio1.TestEjercicio1--><a href="TestEjercicio1.html" target="_top" title="TestEjercicio1.html" xlink:actuate="onRequest" xlink:href="TestEjercicio1.html" xlink:show="new" xlink:title="TestEjercicio1.html" xlink:type="simple"><g id="elem_ual.hmis.sesion05.ejercicio1.TestEjercicio1"><rect codeLine="3" fill="#F1F1F1" height="65.6094" id="ual.hmis.sesion05.ejercicio1.TestEjercicio1" rx="2.5" ry="2.5" style="stroke:#181818;stroke-width:0.5;" width="209" x="22.5" y="166"/><ellipse cx="78.25" cy="182" fill="#ADD1B2" rx="11" ry="11" style="stroke:#181818;stroke-width:1.0;"/><path d="M81.0156,177.875 Q81.1719,177.6563 81.3594,177.5469 Q81.5469,177.4375 81.7656,177.4375 Q82.1406,177.4375 82.375,177.7031 Q82.6094,177.9531 82.6094,178.5625 L82.6094,180.0156 Q82.6094,180.625 82.375,180.8906 Q82.1406,181.1563 81.7656,181.1563 Q81.4219,181.1563 81.2188,180.9531 Q81.0156,180.7656 80.9063,180.25 Q80.8594,179.8906 80.6719,179.7031 Q80.3438,179.3281 79.7344,179.1094 Q79.125,178.8906 78.5,178.8906 Q77.7344,178.8906 77.0938,179.2188 Q76.4688,179.5469 75.9688,180.2969 Q75.4844,181.0469 75.4844,182.0781 L75.4844,183.1719 Q75.4844,184.4063 76.375,185.2344 Q77.2656,186.0469 78.8594,186.0469 Q79.7969,186.0469 80.4531,185.7969 Q80.8438,185.6406 81.2656,185.2031 Q81.5313,184.9375 81.6719,184.8594 Q81.8281,184.7813 82.0313,184.7813 Q82.3594,184.7813 82.6094,185.0469 Q82.875,185.2969 82.875,185.6406 Q82.875,185.9844 82.5313,186.3906 Q82.0313,186.9688 81.2344,187.2969 Q80.1563,187.75 78.8594,187.75 Q77.3438,187.75 76.1406,187.125 Q75.1563,186.625 74.4688,185.5625 Q73.7813,184.4844 73.7813,183.2031 L73.7813,182.0469 Q73.7813,180.7188 74.3906,179.5781 Q75.0156,178.4219 76.1094,177.8125 Q77.2031,177.1875 78.4375,177.1875 Q79.1719,177.1875 79.8125,177.3594 Q80.4688,177.5156 81.0156,177.875 Z " fill="#000000"/><text fill="#000000" font-family="sans-serif" font-size="14" lengthAdjust="spacing" textLength="89" x="98.75" y="187.7285">TestEjercicio1</text><line style="stroke:#181818;stroke-width:0.5;" x1="23.5" x2="230.5" y1="198" y2="198"/><line style="stroke:#181818;stroke-width:0.5;" x1="23.5" x2="230.5" y1="206" y2="206"/><polygon fill="#4177AF" points="33.5,216.3047,29.5,222.3047,37.5,222.3047" style="stroke:#1963A0;stroke-width:1.0;"/><text fill="#000000" font-family="sans-serif" font-size="14" lengthAdjust="spacing" textLength="183" x="42.5" y="224.5332">testTransformar(int, int): void</text></g></a><!--class java.lang.Object--><g id="elem_java.lang.Object"><rect codeLine="11" fill="#F1F1F1" height="48" id="java.lang.Object" rx="2.5" ry="2.5" style="stroke:#181818;stroke-width:0.5;" width="73" x="90.5" y="42"/><ellipse cx="105.5" cy="58" fill="#ADD1B2" rx="11" ry="11" style="stroke:#181818;stroke-width:1.0;"/><path d="M108.2656,53.875 Q108.4219,53.6563 108.6094,53.5469 Q108.7969,53.4375 109.0156,53.4375 Q109.3906,53.4375 109.625,53.7031 Q109.8594,53.9531 109.8594,54.5625 L109.8594,56.0156 Q109.8594,56.625 109.625,56.8906 Q109.3906,57.1563 109.0156,57.1563 Q108.6719,57.1563 108.4688,56.9531 Q108.2656,56.7656 108.1563,56.25 Q108.1094,55.8906 107.9219,55.7031 Q107.5938,55.3281 106.9844,55.1094 Q106.375,54.8906 105.75,54.8906 Q104.9844,54.8906 104.3438,55.2188 Q103.7188,55.5469 103.2188,56.2969 Q102.7344,57.0469 102.7344,58.0781 L102.7344,59.1719 Q102.7344,60.4063 103.625,61.2344 Q104.5156,62.0469 106.1094,62.0469 Q107.0469,62.0469 107.7031,61.7969 Q108.0938,61.6406 108.5156,61.2031 Q108.7813,60.9375 108.9219,60.8594 Q109.0781,60.7813 109.2813,60.7813 Q109.6094,60.7813 109.8594,61.0469 Q110.125,61.2969 110.125,61.6406 Q110.125,61.9844 109.7813,62.3906 Q109.2813,62.9688 108.4844,63.2969 Q107.4063,63.75 106.1094,63.75 Q104.5938,63.75 103.3906,63.125 Q102.4063,62.625 101.7188,61.5625 Q101.0313,60.4844 101.0313,59.2031 L101.0313,58.0469 Q101.0313,56.7188 101.6406,55.5781 Q102.2656,54.4219 103.3594,53.8125 Q104.4531,53.1875 105.6875,53.1875 Q106.4219,53.1875 107.0625,53.3594 Q107.7188,53.5156 108.2656,53.875 Z " fill="#000000"/><text fill="#000000" font-family="sans-serif" font-size="14" lengthAdjust="spacing" textLength="41" x="119.5" y="63.7285">Object</text><line style="stroke:#181818;stroke-width:0.5;" x1="91.5" x2="162.5" y1="74" y2="74"/><line style="stroke:#181818;stroke-width:0.5;" x1="91.5" x2="162.5" y1="82" y2="82"/></g><!--reverse link java.lang.Object to ual.hmis.sesion05.ejercicio1.TestEjercicio1--><g id="link_java.lang.Object_ual.hmis.sesion05.ejercicio1.TestEjercicio1"><path codeLine="7" d="M127,110.16 C127,128.29 127,149.01 127,165.78 " fill="none" id="java.lang.Object-backto-ual.hmis.sesion05.ejercicio1.TestEjercicio1" style="stroke:#181818;stroke-width:1.0;"/><polygon fill="none" points="120,110.12,127,90.12,134,110.12,120,110.12" style="stroke:#181818;stroke-width:1.0;"/></g><text fill="#888888" font-family="sans-serif" font-size="10" lengthAdjust="spacing" textLength="184" x="28.5" y="264.3809">UMLDoclet 2.1.0, PlantUML 1.2022.14</text><!--SRC=[NL1D3u8m3BtpAtenWGGNCF5YFEfDemSy4Gvr5XaPczac5pz-koCOGD-XJTg-zze202XioDwG4znHigeHbbcoGgjaoQWcmmKNEeL74C0NNAAra95rsx6Vvxy5Lhb65eNdmGHlvuSoWygMsZHeGg5S33v4AsYrk0p3hz6knXQPH7LbXtDDtC7wEP__sGSJpdZGm9niqI_VAqrPd9GZ0wNMNJhjTnlD9JbOi9GbCHozZFDLcBLakk-4qGS0]--></g></svg>