<?xml version="1.0" encoding="UTF-8" standalone="no"?><svg xmlns="http://www.w3.org/2000/svg" xmlns:xlink="http://www.w3.org/1999/xlink" contentStyleType="text/css" height="291px" preserveAspectRatio="none" style="width:481px;height:291px;background:#FFFFFF;" version="1.1" viewBox="0 0 481 291" width="481px" zoomAndPan="magnify"><defs/><g><!--cluster ual.hmis.sesion05.ejercicio5--><g id="cluster_ual.hmis.sesion05.ejercicio5"><path d="M8.5,130 L207.5,130 A3.75,3.75 0 0 1 210,132.5 L217,153.6094 L471.5,153.6094 A2.5,2.5 0 0 1 474,156.1094 L474,262.5 A2.5,2.5 0 0 1 471.5,265 L8.5,265 A2.5,2.5 0 0 1 6,262.5 L6,132.5 A2.5,2.5 0 0 1 8.5,130 " fill="none" style="stroke:#000000;stroke-width:1.5;"/><line style="stroke:#000000;stroke-width:1.5;" x1="6" x2="217" y1="153.6094" y2="153.6094"/><text fill="#000000" font-family="sans-serif" font-size="14" font-weight="bold" lengthAdjust="spacing" textLength="198" x="10" y="146.5332">ual.hmis.sesion05.ejercicio5</text></g><!--cluster java.lang--><g id="cluster_java.lang"><path d="M189.5,6 L253.5,6 A3.75,3.75 0 0 1 256,8.5 L263,29.6094 L290.5,29.6094 A2.5,2.5 0 0 1 293,32.1094 L293,103.5 A2.5,2.5 0 0 1 290.5,106 L189.5,106 A2.5,2.5 0 0 1 187,103.5 L187,8.5 A2.5,2.5 0 0 1 189.5,6 " fill="none" style="stroke:#000000;stroke-width:1.5;"/><line style="stroke:#000000;stroke-width:1.5;" x1="187" x2="263" y1="29.6094" y2="29.6094"/><text fill="#000000" font-family="sans-serif" font-size="14" font-weight="bold" lengthAdjust="spacing" textLength="63" x="191" y="22.5332">java.lang</text></g><!--class ual.hmis.sesion05.ejercicio5.TestEjercicio5--><a href="TestEjercicio5.html" target="_top" title="TestEjercicio5.html" xlink:actuate="onRequest" xlink:href="TestEjercicio5.html" xlink:show="new" xlink:title="TestEjercicio5.html" xlink:type="simple"><g id="elem_ual.hmis.sesion05.ejercicio5.TestEjercicio5"><rect codeLine="3" fill="#F1F1F1" height="83.2188" id="ual.hmis.sesion05.ejercicio5.TestEjercicio5" rx="2.5" ry="2.5" style="stroke:#181818;stroke-width:0.5;" width="435" x="22.5" y="166"/><ellipse cx="191.25" cy="182" fill="#ADD1B2" rx="11" ry="11" style="stroke:#181818;stroke-width:1.0;"/><path d="M194.0156,177.875 Q194.1719,177.6563 194.3594,177.5469 Q194.5469,177.4375 194.7656,177.4375 Q195.1406,177.4375 195.375,177.7031 Q195.6094,177.9531 195.6094,178.5625 L195.6094,180.0156 Q195.6094,180.625 195.375,180.8906 Q195.1406,181.1563 194.7656,181.1563 Q194.4219,181.1563 194.2188,180.9531 Q194.0156,180.7656 193.9063,180.25 Q193.8594,179.8906 193.6719,179.7031 Q193.3438,179.3281 192.7344,179.1094 Q192.125,178.8906 191.5,178.8906 Q190.7344,178.8906 190.0938,179.2188 Q189.4688,179.5469 188.9688,180.2969 Q188.4844,181.0469 188.4844,182.0781 L188.4844,183.1719 Q188.4844,184.4063 189.375,185.2344 Q190.2656,186.0469 191.8594,186.0469 Q192.7969,186.0469 193.4531,185.7969 Q193.8438,185.6406 194.2656,185.2031 Q194.5313,184.9375 194.6719,184.8594 Q194.8281,184.7813 195.0313,184.7813 Q195.3594,184.7813 195.6094,185.0469 Q195.875,185.2969 195.875,185.6406 Q195.875,185.9844 195.5313,186.3906 Q195.0313,186.9688 194.2344,187.2969 Q193.1563,187.75 191.8594,187.75 Q190.3438,187.75 189.1406,187.125 Q188.1563,186.625 187.4688,185.5625 Q186.7813,184.4844 186.7813,183.2031 L186.7813,182.0469 Q186.7813,180.7188 187.3906,179.5781 Q188.0156,178.4219 189.1094,177.8125 Q190.2031,177.1875 191.4375,177.1875 Q192.1719,177.1875 192.8125,177.3594 Q193.4688,177.5156 194.0156,177.875 Z " fill="#000000"/><text fill="#000000" font-family="sans-serif" font-size="14" lengthAdjust="spacing" textLength="89" x="211.75" y="187.7285">TestEjercicio5</text><line style="stroke:#181818;stroke-width:0.5;" x1="23.5" x2="456.5" y1="198" y2="198"/><line style="stroke:#181818;stroke-width:0.5;" x1="23.5" x2="456.5" y1="206" y2="206"/><polygon fill="#4177AF" points="33.5,216.3047,29.5,222.3047,37.5,222.3047" style="stroke:#1963A0;stroke-width:1.0;"/><text fill="#000000" font-family="sans-serif" font-size="14" lengthAdjust="spacing" textLength="409" x="42.5" y="224.5332">testFusionListas(List&lt;Integer&gt;, List&lt;Integer&gt;, List&lt;Integer&gt;): void</text><rect fill="#F24D5C" height="6" style="stroke:#C82930;stroke-width:1.0;" width="6" x="30.5" y="234.9141"/><text fill="#000000" font-family="sans-serif" font-size="14" lengthAdjust="spacing" text-decoration="underline" textLength="246" x="42.5" y="242.1426">datosDePrueba(): Stream&lt;Arguments&gt;</text></g></a><!--class java.lang.Object--><g id="elem_java.lang.Object"><rect codeLine="12" fill="#F1F1F1" height="48" id="java.lang.Object" rx="2.5" ry="2.5" style="stroke:#181818;stroke-width:0.5;" width="73" x="203.5" y="42"/><ellipse cx="218.5" cy="58" fill="#ADD1B2" rx="11" ry="11" style="stroke:#181818;stroke-width:1.0;"/><path d="M221.2656,53.875 Q221.4219,53.6563 221.6094,53.5469 Q221.7969,53.4375 222.0156,53.4375 Q222.3906,53.4375 222.625,53.7031 Q222.8594,53.9531 222.8594,54.5625 L222.8594,56.0156 Q222.8594,56.625 222.625,56.8906 Q222.3906,57.1563 222.0156,57.1563 Q221.6719,57.1563 221.4688,56.9531 Q221.2656,56.7656 221.1563,56.25 Q221.1094,55.8906 220.9219,55.7031 Q220.5938,55.3281 219.9844,55.1094 Q219.375,54.8906 218.75,54.8906 Q217.9844,54.8906 217.3438,55.2188 Q216.7188,55.5469 216.2188,56.2969 Q215.7344,57.0469 215.7344,58.0781 L215.7344,59.1719 Q215.7344,60.4063 216.625,61.2344 Q217.5156,62.0469 219.1094,62.0469 Q220.0469,62.0469 220.7031,61.7969 Q221.0938,61.6406 221.5156,61.2031 Q221.7813,60.9375 221.9219,60.8594 Q222.0781,60.7813 222.2813,60.7813 Q222.6094,60.7813 222.8594,61.0469 Q223.125,61.2969 223.125,61.6406 Q223.125,61.9844 222.7813,62.3906 Q222.2813,62.9688 221.4844,63.2969 Q220.4063,63.75 219.1094,63.75 Q217.5938,63.75 216.3906,63.125 Q215.4063,62.625 214.7188,61.5625 Q214.0313,60.4844 214.0313,59.2031 L214.0313,58.0469 Q214.0313,56.7188 214.6406,55.5781 Q215.2656,54.4219 216.3594,53.8125 Q217.4531,53.1875 218.6875,53.1875 Q219.4219,53.1875 220.0625,53.3594 Q220.7188,53.5156 221.2656,53.875 Z " fill="#000000"/><text fill="#000000" font-family="sans-serif" font-size="14" lengthAdjust="spacing" textLength="41" x="232.5" y="63.7285">Object</text><line style="stroke:#181818;stroke-width:0.5;" x1="204.5" x2="275.5" y1="74" y2="74"/><line style="stroke:#181818;stroke-width:0.5;" x1="204.5" x2="275.5" y1="82" y2="82"/></g><!--reverse link java.lang.Object to ual.hmis.sesion05.ejercicio5.TestEjercicio5--><g id="link_java.lang.Object_ual.hmis.sesion05.ejercicio5.TestEjercicio5"><path codeLine="8" d="M240,110.31 C240,128.06 240,148.48 240,165.93 " fill="none" id="java.lang.Object-backto-ual.hmis.sesion05.ejercicio5.TestEjercicio5" style="stroke:#181818;stroke-width:1.0;"/><polygon fill="none" points="233,110.04,240,90.04,247,110.04,233,110.04" style="stroke:#181818;stroke-width:1.0;"/></g><text fill="#888888" font-family="sans-serif" font-size="10" lengthAdjust="spacing" textLength="184" x="141.5" y="281.3809">UMLDoclet 2.1.0, PlantUML 1.2022.14</text><!--SRC=[VP1FQy904CNl-HHpAKGmYnQyb20KR46mL6Xx4W_ZEeqRza_PcUHYxMVl1ek9FJYNOMVd_ORt000yEk8lr0GDMdLmXXKJc-0dCqKrHMsq2JCuPXdybRR83E_4yjJ_RpRN0tKGPxVRf8D1_KXQUcuw_Cgm8ETTAvTUgA8u7yEjv-W1sc3sLy1ZWeZH9oZsA84Nj8uDxJ1FksyI2Ltv6Al6aHUUNuIdtakDBIgBlbAlkvgqGFbT5F-yPGDDdzP5ER1uJkPC6gfqkayHFaFesiVBQX6q9O5xDLMJCQmJHj8KxbgANJRvw1S0]--></g></svg>