<?xml version="1.0" encoding="UTF-8" standalone="no"?><svg xmlns="http://www.w3.org/2000/svg" xmlns:xlink="http://www.w3.org/1999/xlink" contentStyleType="text/css" height="287px" preserveAspectRatio="none" style="width:290px;height:287px;background:#FFFFFF;" version="1.1" viewBox="0 0 290 287" width="290px" zoomAndPan="magnify"><defs/><g><!--class ual.hmis.sesion05.ejercicio4.TestDiagonales--><a href="TestDiagonales.html" target="_top" title="TestDiagonales.html" xlink:actuate="onRequest" xlink:href="TestDiagonales.html" xlink:show="new" xlink:title="TestDiagonales.html" xlink:type="simple"><g id="elem_ual.hmis.sesion05.ejercicio4.TestDiagonales"><rect codeLine="5" fill="#F1F1F1" height="153.8438" id="ual.hmis.sesion05.ejercicio4.TestDiagonales" rx="2.5" ry="2.5" style="stroke:#181818;stroke-width:0.5;" width="274" x="9" y="107"/><ellipse cx="74.25" cy="127.0938" fill="#ADD1B2" rx="11" ry="11" style="stroke:#181818;stroke-width:1.0;"/><path d="M77.0156,122.9688 Q77.1719,122.75 77.3594,122.6406 Q77.5469,122.5313 77.7656,122.5313 Q78.1406,122.5313 78.375,122.7969 Q78.6094,123.0469 78.6094,123.6563 L78.6094,125.1094 Q78.6094,125.7188 78.375,125.9844 Q78.1406,126.25 77.7656,126.25 Q77.4219,126.25 77.2188,126.0469 Q77.0156,125.8594 76.9063,125.3438 Q76.8594,124.9844 76.6719,124.7969 Q76.3438,124.4219 75.7344,124.2031 Q75.125,123.9844 74.5,123.9844 Q73.7344,123.9844 73.0938,124.3125 Q72.4688,124.6406 71.9688,125.3906 Q71.4844,126.1406 71.4844,127.1719 L71.4844,128.2656 Q71.4844,129.5 72.375,130.3281 Q73.2656,131.1406 74.8594,131.1406 Q75.7969,131.1406 76.4531,130.8906 Q76.8438,130.7344 77.2656,130.2969 Q77.5313,130.0313 77.6719,129.9531 Q77.8281,129.875 78.0313,129.875 Q78.3594,129.875 78.6094,130.1406 Q78.875,130.3906 78.875,130.7344 Q78.875,131.0781 78.5313,131.4844 Q78.0313,132.0625 77.2344,132.3906 Q76.1563,132.8438 74.8594,132.8438 Q73.3438,132.8438 72.1406,132.2188 Q71.1563,131.7188 70.4688,130.6563 Q69.7813,129.5781 69.7813,128.2969 L69.7813,127.1406 Q69.7813,125.8125 70.3906,124.6719 Q71.0156,123.5156 72.1094,122.9063 Q73.2031,122.2813 74.4375,122.2813 Q75.1719,122.2813 75.8125,122.4531 Q76.4688,122.6094 77.0156,122.9688 Z " fill="#000000"/><text fill="#000000" font-family="sans-serif" font-size="14" lengthAdjust="spacing" textLength="99" x="112.75" y="126.5332">TestDiagonales</text><text fill="#000000" font-family="sans-serif" font-size="10" lengthAdjust="spacing" textLength="135" x="94.75" y="139.9902">ual.hmis.sesion05.ejercicio4</text><line style="stroke:#181818;stroke-width:0.5;" x1="10" x2="282" y1="147.1875" y2="147.1875"/><polygon fill="#4177AF" points="20,157.4922,16,163.4922,24,163.4922" style="stroke:#1963A0;stroke-width:1.0;"/><text fill="#000000" font-family="sans-serif" font-size="14" lengthAdjust="spacing" textLength="220" x="29" y="165.7207">testDiagonales(String, String): void</text><polygon fill="#4177AF" points="20,175.1016,16,181.1016,24,181.1016" style="stroke:#1963A0;stroke-width:1.0;"/><text fill="#000000" font-family="sans-serif" font-size="14" lengthAdjust="spacing" textLength="248" x="29" y="183.3301">testSumaColumnas(String, String): void</text><polygon fill="#4177AF" points="20,192.7109,16,198.7109,24,198.7109" style="stroke:#1963A0;stroke-width:1.0;"/><text fill="#000000" font-family="sans-serif" font-size="14" lengthAdjust="spacing" textLength="124" x="29" y="200.9395">testInicializar(): void</text><rect fill="#F24D5C" height="6" style="stroke:#C82930;stroke-width:1.0;" width="6" x="17" y="211.3203"/><text fill="#000000" font-family="sans-serif" font-size="14" lengthAdjust="spacing" textLength="182" x="29" y="218.5488">convertirArrayInt(String): int[]</text><rect fill="#F24D5C" height="6" style="stroke:#C82930;stroke-width:1.0;" width="6" x="17" y="228.9297"/><text fill="#000000" font-family="sans-serif" font-size="14" lengthAdjust="spacing" textLength="240" x="29" y="236.1582">convertirArrayDouble(String): double[]</text><rect fill="#F24D5C" height="6" style="stroke:#C82930;stroke-width:1.0;" width="6" x="17" y="246.5391"/><text fill="#000000" font-family="sans-serif" font-size="14" lengthAdjust="spacing" textLength="215" x="29" y="253.7676">convertirArrayUni(String): double[]</text></g></a><!--class java.lang.Object--><g id="elem_java.lang.Object"><rect codeLine="14" fill="#F1F1F1" height="40.1875" id="java.lang.Object" rx="2.5" ry="2.5" style="stroke:#181818;stroke-width:0.5;" width="76" x="108" y="7"/><ellipse cx="123" cy="27.0938" fill="#ADD1B2" rx="11" ry="11" style="stroke:#181818;stroke-width:1.0;"/><path d="M125.7656,22.9688 Q125.9219,22.75 126.1094,22.6406 Q126.2969,22.5313 126.5156,22.5313 Q126.8906,22.5313 127.125,22.7969 Q127.3594,23.0469 127.3594,23.6563 L127.3594,25.1094 Q127.3594,25.7188 127.125,25.9844 Q126.8906,26.25 126.5156,26.25 Q126.1719,26.25 125.9688,26.0469 Q125.7656,25.8594 125.6563,25.3438 Q125.6094,24.9844 125.4219,24.7969 Q125.0938,24.4219 124.4844,24.2031 Q123.875,23.9844 123.25,23.9844 Q122.4844,23.9844 121.8438,24.3125 Q121.2188,24.6406 120.7188,25.3906 Q120.2344,26.1406 120.2344,27.1719 L120.2344,28.2656 Q120.2344,29.5 121.125,30.3281 Q122.0156,31.1406 123.6094,31.1406 Q124.5469,31.1406 125.2031,30.8906 Q125.5938,30.7344 126.0156,30.2969 Q126.2813,30.0313 126.4219,29.9531 Q126.5781,29.875 126.7813,29.875 Q127.1094,29.875 127.3594,30.1406 Q127.625,30.3906 127.625,30.7344 Q127.625,31.0781 127.2813,31.4844 Q126.7813,32.0625 125.9844,32.3906 Q124.9063,32.8438 123.6094,32.8438 Q122.0938,32.8438 120.8906,32.2188 Q119.9063,31.7188 119.2188,30.6563 Q118.5313,29.5781 118.5313,28.2969 L118.5313,27.1406 Q118.5313,25.8125 119.1406,24.6719 Q119.7656,23.5156 120.8594,22.9063 Q121.9531,22.2813 123.1875,22.2813 Q123.9219,22.2813 124.5625,22.4531 Q125.2188,22.6094 125.7656,22.9688 Z " fill="#000000"/><text fill="#000000" font-family="sans-serif" font-size="14" lengthAdjust="spacing" textLength="41" x="138.5" y="26.5332">Object</text><text fill="#000000" font-family="sans-serif" font-size="10" lengthAdjust="spacing" textLength="44" x="137" y="39.9902">java.lang</text></g><!--reverse link java.lang.Object to ual.hmis.sesion05.ejercicio4.TestDiagonales--><g id="link_java.lang.Object_ual.hmis.sesion05.ejercicio4.TestDiagonales"><path codeLine="16" d="M146,67.2 C146,79.31 146,93.09 146,106.81 " fill="none" id="java.lang.Object-backto-ual.hmis.sesion05.ejercicio4.TestDiagonales" style="stroke:#181818;stroke-width:1.0;"/><polygon fill="none" points="139,67.01,146,47.01,153,67.01,139,67.01" style="stroke:#181818;stroke-width:1.0;"/></g><text fill="#888888" font-family="sans-serif" font-size="10" lengthAdjust="spacing" textLength="184" x="46" y="277.2246">UMLDoclet 2.1.0, PlantUML 1.2022.14</text><!--SRC=[bP9FQm8n4CNl_HI3K5X1WnPx4H5AlGWjBLXFriEuExeZoKIIhA3zyzaRLz6krDBcCioR7oyJNW00F0KGDEHNcDA8LkWmM0TYXQxY67BE2CYimWRcJ3hpvwgXaDiebtggqNkezJnlgTlkz5_8Xm7ZmWfgygzo6BJw1MgL6_RAasShhLj5It8ffsmxDK0Flm6gQWkJILLGUJ1wEeMtSgVT-GmL81a5nx9emBxMkx2sd5NfKM7mtkh22Fw97qhS3JLlqINdG3EriYONsDqvXvkXXEJen18cqqlam1OpJISuA_lB_5Zu0lpnSq1FioMbuLimIroZqYYBCeLZf_RWtkHSXTvxi_cVn0wxa0HoCBTsLyQF3mERwlWTRrHRjHhm76y8KONh-C2TOrB_0W00]--></g></svg>