<?xml version="1.0" encoding="UTF-8" standalone="no"?><svg xmlns="http://www.w3.org/2000/svg" xmlns:xlink="http://www.w3.org/1999/xlink" contentStyleType="text/css" height="362px" preserveAspectRatio="none" style="width:319px;height:362px;background:#FFFFFF;" version="1.1" viewBox="0 0 319 362" width="319px" zoomAndPan="magnify"><defs/><g><!--cluster ual.hmis.sesion05.ejercicio4--><g id="cluster_ual.hmis.sesion05.ejercicio4"><path d="M8.5,130 L207.5,130 A3.75,3.75 0 0 1 210,132.5 L217,153.6094 L309.5,153.6094 A2.5,2.5 0 0 1 312,156.1094 L312,333.5 A2.5,2.5 0 0 1 309.5,336 L8.5,336 A2.5,2.5 0 0 1 6,333.5 L6,132.5 A2.5,2.5 0 0 1 8.5,130 " fill="none" style="stroke:#000000;stroke-width:1.5;"/><line style="stroke:#000000;stroke-width:1.5;" x1="6" x2="217" y1="153.6094" y2="153.6094"/><text fill="#000000" font-family="sans-serif" font-size="14" font-weight="bold" lengthAdjust="spacing" textLength="198" x="10" y="146.5332">ual.hmis.sesion05.ejercicio4</text></g><!--cluster java.lang--><g id="cluster_java.lang"><path d="M108.5,6 L172.5,6 A3.75,3.75 0 0 1 175,8.5 L182,29.6094 L209.5,29.6094 A2.5,2.5 0 0 1 212,32.1094 L212,103.5 A2.5,2.5 0 0 1 209.5,106 L108.5,106 A2.5,2.5 0 0 1 106,103.5 L106,8.5 A2.5,2.5 0 0 1 108.5,6 " fill="none" style="stroke:#000000;stroke-width:1.5;"/><line style="stroke:#000000;stroke-width:1.5;" x1="106" x2="182" y1="29.6094" y2="29.6094"/><text fill="#000000" font-family="sans-serif" font-size="14" font-weight="bold" lengthAdjust="spacing" textLength="63" x="110" y="22.5332">java.lang</text></g><!--class ual.hmis.sesion05.ejercicio4.TestDiagonales--><a href="TestDiagonales.html" target="_top" title="TestDiagonales.html" xlink:actuate="onRequest" xlink:href="TestDiagonales.html" xlink:show="new" xlink:title="TestDiagonales.html" xlink:type="simple"><g id="elem_ual.hmis.sesion05.ejercicio4.TestDiagonales"><rect codeLine="3" fill="#F1F1F1" height="153.6563" id="ual.hmis.sesion05.ejercicio4.TestDiagonales" rx="2.5" ry="2.5" style="stroke:#181818;stroke-width:0.5;" width="274" x="22" y="166"/><ellipse cx="105.25" cy="182" fill="#ADD1B2" rx="11" ry="11" style="stroke:#181818;stroke-width:1.0;"/><path d="M108.0156,177.875 Q108.1719,177.6563 108.3594,177.5469 Q108.5469,177.4375 108.7656,177.4375 Q109.1406,177.4375 109.375,177.7031 Q109.6094,177.9531 109.6094,178.5625 L109.6094,180.0156 Q109.6094,180.625 109.375,180.8906 Q109.1406,181.1563 108.7656,181.1563 Q108.4219,181.1563 108.2188,180.9531 Q108.0156,180.7656 107.9063,180.25 Q107.8594,179.8906 107.6719,179.7031 Q107.3438,179.3281 106.7344,179.1094 Q106.125,178.8906 105.5,178.8906 Q104.7344,178.8906 104.0938,179.2188 Q103.4688,179.5469 102.9688,180.2969 Q102.4844,181.0469 102.4844,182.0781 L102.4844,183.1719 Q102.4844,184.4063 103.375,185.2344 Q104.2656,186.0469 105.8594,186.0469 Q106.7969,186.0469 107.4531,185.7969 Q107.8438,185.6406 108.2656,185.2031 Q108.5313,184.9375 108.6719,184.8594 Q108.8281,184.7813 109.0313,184.7813 Q109.3594,184.7813 109.6094,185.0469 Q109.875,185.2969 109.875,185.6406 Q109.875,185.9844 109.5313,186.3906 Q109.0313,186.9688 108.2344,187.2969 Q107.1563,187.75 105.8594,187.75 Q104.3438,187.75 103.1406,187.125 Q102.1563,186.625 101.4688,185.5625 Q100.7813,184.4844 100.7813,183.2031 L100.7813,182.0469 Q100.7813,180.7188 101.3906,179.5781 Q102.0156,178.4219 103.1094,177.8125 Q104.2031,177.1875 105.4375,177.1875 Q106.1719,177.1875 106.8125,177.3594 Q107.4688,177.5156 108.0156,177.875 Z " fill="#000000"/><text fill="#000000" font-family="sans-serif" font-size="14" lengthAdjust="spacing" textLength="99" x="125.75" y="187.7285">TestDiagonales</text><line style="stroke:#181818;stroke-width:0.5;" x1="23" x2="295" y1="198" y2="198"/><line style="stroke:#181818;stroke-width:0.5;" x1="23" x2="295" y1="206" y2="206"/><polygon fill="#4177AF" points="33,216.3047,29,222.3047,37,222.3047" style="stroke:#1963A0;stroke-width:1.0;"/><text fill="#000000" font-family="sans-serif" font-size="14" lengthAdjust="spacing" textLength="220" x="42" y="224.5332">testDiagonales(String, String): void</text><polygon fill="#4177AF" points="33,233.9141,29,239.9141,37,239.9141" style="stroke:#1963A0;stroke-width:1.0;"/><text fill="#000000" font-family="sans-serif" font-size="14" lengthAdjust="spacing" textLength="248" x="42" y="242.1426">testSumaColumnas(String, String): void</text><polygon fill="#4177AF" points="33,251.5234,29,257.5234,37,257.5234" style="stroke:#1963A0;stroke-width:1.0;"/><text fill="#000000" font-family="sans-serif" font-size="14" lengthAdjust="spacing" textLength="124" x="42" y="259.752">testInicializar(): void</text><rect fill="#F24D5C" height="6" style="stroke:#C82930;stroke-width:1.0;" width="6" x="30" y="270.1328"/><text fill="#000000" font-family="sans-serif" font-size="14" lengthAdjust="spacing" textLength="182" x="42" y="277.3613">convertirArrayInt(String): int[]</text><rect fill="#F24D5C" height="6" style="stroke:#C82930;stroke-width:1.0;" width="6" x="30" y="287.7422"/><text fill="#000000" font-family="sans-serif" font-size="14" lengthAdjust="spacing" textLength="240" x="42" y="294.9707">convertirArrayDouble(String): double[]</text><rect fill="#F24D5C" height="6" style="stroke:#C82930;stroke-width:1.0;" width="6" x="30" y="305.3516"/><text fill="#000000" font-family="sans-serif" font-size="14" lengthAdjust="spacing" textLength="215" x="42" y="312.5801">convertirArrayUni(String): double[]</text></g></a><!--class java.lang.Object--><g id="elem_java.lang.Object"><rect codeLine="16" fill="#F1F1F1" height="48" id="java.lang.Object" rx="2.5" ry="2.5" style="stroke:#181818;stroke-width:0.5;" width="73" x="122.5" y="42"/><ellipse cx="137.5" cy="58" fill="#ADD1B2" rx="11" ry="11" style="stroke:#181818;stroke-width:1.0;"/><path d="M140.2656,53.875 Q140.4219,53.6563 140.6094,53.5469 Q140.7969,53.4375 141.0156,53.4375 Q141.3906,53.4375 141.625,53.7031 Q141.8594,53.9531 141.8594,54.5625 L141.8594,56.0156 Q141.8594,56.625 141.625,56.8906 Q141.3906,57.1563 141.0156,57.1563 Q140.6719,57.1563 140.4688,56.9531 Q140.2656,56.7656 140.1563,56.25 Q140.1094,55.8906 139.9219,55.7031 Q139.5938,55.3281 138.9844,55.1094 Q138.375,54.8906 137.75,54.8906 Q136.9844,54.8906 136.3438,55.2188 Q135.7188,55.5469 135.2188,56.2969 Q134.7344,57.0469 134.7344,58.0781 L134.7344,59.1719 Q134.7344,60.4063 135.625,61.2344 Q136.5156,62.0469 138.1094,62.0469 Q139.0469,62.0469 139.7031,61.7969 Q140.0938,61.6406 140.5156,61.2031 Q140.7813,60.9375 140.9219,60.8594 Q141.0781,60.7813 141.2813,60.7813 Q141.6094,60.7813 141.8594,61.0469 Q142.125,61.2969 142.125,61.6406 Q142.125,61.9844 141.7813,62.3906 Q141.2813,62.9688 140.4844,63.2969 Q139.4063,63.75 138.1094,63.75 Q136.5938,63.75 135.3906,63.125 Q134.4063,62.625 133.7188,61.5625 Q133.0313,60.4844 133.0313,59.2031 L133.0313,58.0469 Q133.0313,56.7188 133.6406,55.5781 Q134.2656,54.4219 135.3594,53.8125 Q136.4531,53.1875 137.6875,53.1875 Q138.4219,53.1875 139.0625,53.3594 Q139.7188,53.5156 140.2656,53.875 Z " fill="#000000"/><text fill="#000000" font-family="sans-serif" font-size="14" lengthAdjust="spacing" textLength="41" x="151.5" y="63.7285">Object</text><line style="stroke:#181818;stroke-width:0.5;" x1="123.5" x2="194.5" y1="74" y2="74"/><line style="stroke:#181818;stroke-width:0.5;" x1="123.5" x2="194.5" y1="82" y2="82"/></g><!--reverse link java.lang.Object to ual.hmis.sesion05.ejercicio4.TestDiagonales--><g id="link_java.lang.Object_ual.hmis.sesion05.ejercicio4.TestDiagonales"><path codeLine="12" d="M159,110.32 C159,127.11 159,146.86 159,165.87 " fill="none" id="java.lang.Object-backto-ual.hmis.sesion05.ejercicio4.TestDiagonales" style="stroke:#181818;stroke-width:1.0;"/><polygon fill="none" points="152,110.24,159,90.24,166,110.24,152,110.24" style="stroke:#181818;stroke-width:1.0;"/></g><text fill="#888888" font-family="sans-serif" font-size="10" lengthAdjust="spacing" textLength="184" x="60.5" y="352.3809">UMLDoclet 2.1.0, PlantUML 1.2022.14</text><!--SRC=[ZP9FIyD04CNl-HHp4L9ebYfw4I_IN0eLXTfJo66w7TCDcrdPdGJy-zbDZJHfbU1SXXtUxx7xPW4062iApwW9QhHgLvcW0WNZU7Qbg2IlZJRk4jwY27vAMmm17Yb8Qh1mZ9O2PDdnGEsaiddUSZ2eJpaInIlnXeifT7ro3Oqpsz_4ggvmxcnTCVwRMN1xSRJc5NtyboZHZXloOlojz_YoO8aFZeOboyVKgQitbdfW-tqUPzPiHe2FFjyI6rGMkL3tcvAqmCrxafpa7GsOVeC7SX1xjwtEQKXfOY4FJyxjs_fkcJfjIU12dQlP51vQ6scdSDO-OVyTuiaN]--></g></svg>